# xmcd
#
# Track frame offsets:
#       150
#       14131
#       29551
#       46666
#       60504
#       78134
#       91404
#       114209
#       128364
#       143189
#       163471
#       178016
#       189901
#       212184
#       228719
#       243541
#       260124
#       279201
#       295799
#       313255
#
# Disc length: 4417 seconds
#
# Revision: 2
# Processed by: cddbd v1.5.2PL0 Copyright (c) Steve Scherf et al.
# Submitted via: FreeDbEdit v0.1
#
DISCID=20113f14
DTITLE=The Pretenders - Greatest Hits
DYEAR=1900
DGENRE=
TTITLE0=Brass in Pocket
TTITLE1=Message of Love
TTITLE2=Don't Get Me Wrong
TTITLE3=Kid
TTITLE4=Human
TTITLE5=I Go to Sleep
TTITLE6=Forever Young
TTITLE7=I Got You Babe
TTITLE8=Night in My Veins
TTITLE9=Spiritual High
TTITLE10=Talk of the Town
TTITLE11=Stop Your Sobbing
TTITLE12=Hymn to Her
TTITLE13=2000 Miles
TTITLE14=Breakfast in Bed
TTITLE15=Popstar
TTITLE16=Middle of the Road
TTITLE17=Thin Line Between Love and Hate
TTITLE18=Back on the Chain Gang
TTITLE19=I'll Stand by You
EXTD=
EXTT0=
EXTT1=
EXTT2=
EXTT3=
EXTT4=
EXTT5=
EXTT6=
EXTT7=
EXTT8=
EXTT9=
EXTT10=
EXTT11=
EXTT12=
EXTT13=
EXTT14=
EXTT15=
EXTT16=
EXTT17=
EXTT18=
EXTT19=
PLAYORDER=
